<svg width="55" height="9" viewBox="0 0 55 9" fill="none" xmlns="http://www.w3.org/2000/svg">
<g clip-path="url(#clip0)">
<path d="M0.245759 4.08415C0.442116 3.08274 1.32572 2.37585 2.5824 2.37585C4.03544 2.37585 5.15467 2.98456 5.15467 4.94812V8.60035H3.91762L3.76054 7.81492C3.32855 8.34508 2.75912 8.69852 1.87552 8.69852C0.834828 8.69852 0.0101318 8.05055 0.0101318 6.83314C0.0101318 5.61573 1.09009 4.83031 2.62167 4.83031H3.64272V4.55541C3.64272 3.86816 3.1322 3.65217 2.56276 3.65217C2.13078 3.65217 1.6988 3.78962 1.50244 4.35905L0.245759 4.08415ZM2.22896 7.42221C2.9162 7.42221 3.64272 6.95095 3.64272 6.16553V6.04772H2.64131C1.99333 6.02808 1.60062 6.28334 1.60062 6.81351C1.60062 7.10804 1.81661 7.42221 2.22896 7.42221Z" fill="black"/>
<path d="M29.6599 4.08415C29.8563 3.08274 30.7399 2.37585 31.9966 2.37585C33.4496 2.37585 34.5689 2.98456 34.5689 4.94812V8.60035H33.3318L33.1747 7.81492C32.7428 8.34508 32.1733 8.69852 31.2897 8.69852C30.249 8.69852 29.4243 8.05055 29.4243 6.83314C29.4243 5.61573 30.5043 4.83031 32.0359 4.83031H33.0569V4.55541C33.0569 3.86816 32.5464 3.65217 31.977 3.65217C31.545 3.65217 31.113 3.78962 30.9166 4.35905L29.6599 4.08415ZM31.6432 7.42221C32.3304 7.42221 33.0569 6.95095 33.0569 6.16553V6.04772H32.0555C31.4075 6.04772 31.0148 6.28334 31.0148 6.83314C31.0148 7.10804 31.2308 7.42221 31.6432 7.42221Z" fill="black"/>
<path d="M35.9434 8.61999V2.47403H37.4553V3.47545C37.8873 2.74893 38.5745 2.37585 39.2618 2.37585C39.5367 2.37585 39.7527 2.41513 40.0079 2.49367L39.733 3.8878C39.5563 3.76998 39.36 3.71108 39.1047 3.71108C38.2211 3.71108 37.4553 4.4376 37.4553 6.4208V8.60035L35.9434 8.61999Z" fill="black"/>
<path d="M43.2282 2.37591C43.8565 2.37591 44.4456 2.69008 44.7205 3.02389V0H46.2324V8.62005H44.7205V7.9917C44.5438 8.30587 43.994 8.71822 43.2282 8.71822C41.3824 8.71822 40.4399 7.44191 40.4399 5.55689C40.4399 3.67186 41.3824 2.37591 43.2282 2.37591ZM43.4442 7.42227C44.2296 7.42227 44.8579 6.7743 44.8579 5.55689C44.8579 4.33948 44.2296 3.6915 43.4442 3.6915C42.6588 3.6915 42.0304 4.33948 42.0304 5.55689C42.0304 6.7743 42.6588 7.42227 43.4442 7.42227Z" fill="black"/>
<path d="M51.6911 3.35774L50.7879 4.18244C50.513 3.80936 50.1006 3.65227 49.7668 3.65227C49.4723 3.65227 49.1974 3.82899 49.1974 4.1628C49.1974 4.4377 49.4134 4.63406 49.7864 4.75187C50.6308 5.06604 52.0053 5.3213 52.0053 6.63689C52.0053 7.75612 51.1609 8.67899 49.8257 8.67899C48.5494 8.67899 47.6854 7.77575 47.3909 7.0296L48.5887 6.38163C48.8046 6.97069 49.217 7.40268 49.8257 7.40268C50.297 7.40268 50.5915 7.18669 50.5915 6.73507C50.5915 6.22454 49.8061 6.10673 49.0599 5.79256C48.3923 5.51766 47.8229 5.08567 47.8229 4.14316C47.8229 3.20065 48.5887 2.35632 49.7864 2.35632C50.5915 2.35632 51.318 2.76867 51.6911 3.35774Z" fill="black"/>
<path d="M20.2348 2.47412L19.1548 6.69578L18.1142 2.47412H16.7004L15.6794 6.69578L14.8154 4.24133L14.7172 4.53586L14.2263 6.10671L15.0117 8.62007H16.347L17.4073 4.65368L18.4676 8.62007H19.8028L21.7664 2.47412H20.2348Z" fill="black"/>
<path d="M27.5392 2.47412L26.4396 6.69578L25.399 2.47412H23.9852L22.9641 6.69578L22.1002 4.24133L22.002 4.53586L21.5111 6.10671L22.2965 8.62007H23.6318L24.6921 4.65368L25.7524 8.62007H27.0876L29.0512 2.47412H27.5392Z" fill="black"/>
<path d="M14.4815 2.47412L12.518 8.60044H11.1827L10.1224 4.63404L9.06209 8.62007H7.72687L5.76331 2.49376H7.29488L8.39448 6.69578L9.43517 2.49376H10.8293L11.87 6.69578L12.9696 2.49376L14.4815 2.47412Z" fill="black"/>
<path d="M53.9688 6.63684C54.5578 6.63684 54.9898 7.06882 54.9898 7.65789C54.9898 8.24696 54.5578 8.67895 53.9688 8.67895C53.3797 8.67895 52.9478 8.24696 52.9478 7.65789C52.9478 7.06882 53.3994 6.63684 53.9688 6.63684Z" fill="black"/>
</g>
<defs>
<clipPath id="clip0">
<rect width="55" height="8.69859" fill="white"/>
</clipPath>
</defs>
</svg>
