<svg width="10" height="10" viewBox="0 0 10 10" fill="none" xmlns="http://www.w3.org/2000/svg">
<path d="M5.09766 2.87402H7.0459V3.34668H5.09766V2.87402ZM3.14551 4.74413C3.57617 4.53808 3.80176 4.2246 3.80176 3.74023C3.80176 2.78223 3.08887 2.5498 2.26562 2.5498H0V7.35838H2.3291C3.20215 7.35838 4.02148 6.93846 4.02148 5.9619C4.02148 5.35839 3.73633 4.9121 3.14551 4.74413V4.74413ZM1.05664 3.37011H2.04785C2.42969 3.37011 2.77246 3.47656 2.77246 3.91992C2.77246 4.32812 2.50586 4.49218 2.12793 4.49218H1.05664V3.37011ZM2.18457 6.54198H1.05566V5.21776H2.20703C2.67187 5.21776 2.96582 5.4121 2.96582 5.90429C2.96582 6.38866 2.61523 6.54198 2.18457 6.54198V6.54198ZM7.80762 5.66796C7.80762 4.63769 7.20508 3.77929 6.11523 3.77929C5.05566 3.77929 4.33496 4.57714 4.33496 5.62304C4.33496 6.70702 5.01758 7.45116 6.11523 7.45116C6.94629 7.45116 7.48438 7.07713 7.74316 6.27929H6.90039C6.80859 6.57714 6.43555 6.73339 6.14551 6.73339C5.58496 6.73339 5.29199 6.40526 5.29199 5.84765H7.80078C7.80371 5.79003 7.80762 5.72948 7.80762 5.66796V5.66796ZM5.29199 5.24413C5.32227 4.78613 5.62793 4.49999 6.08496 4.49999C6.56543 4.49999 6.80566 4.78222 6.84766 5.24413H5.29199Z" fill="#DC212D" fill-opacity="0.9"/>
</svg>
