<svg width="10" height="10" viewBox="0 0 10 10" fill="none" xmlns="http://www.w3.org/2000/svg">
<path d="M5 5.625C4.69097 5.625 4.38887 5.53336 4.13192 5.36167C3.87497 5.18998 3.6747 4.94595 3.55644 4.66044C3.43818 4.37493 3.40723 4.06077 3.46752 3.75767C3.52781 3.45458 3.67663 3.17617 3.89515 2.95765C4.11367 2.73913 4.39208 2.59031 4.69517 2.53002C4.99827 2.46973 5.31243 2.50068 5.59794 2.61894C5.88345 2.7372 6.12748 2.93747 6.29917 3.19442C6.47086 3.45137 6.5625 3.75347 6.5625 4.0625C6.562 4.47675 6.39722 4.87389 6.10431 5.16681C5.81139 5.45972 5.41425 5.6245 5 5.625V5.625ZM5 3.125C4.81458 3.125 4.63332 3.17998 4.47915 3.283C4.32498 3.38601 4.20482 3.53243 4.13386 3.70373C4.06291 3.87504 4.04434 4.06354 4.08051 4.2454C4.11669 4.42725 4.20598 4.5943 4.33709 4.72541C4.4682 4.85652 4.63525 4.94581 4.8171 4.98199C4.99896 5.01816 5.18746 4.99959 5.35877 4.92864C5.53007 4.85768 5.67649 4.73752 5.7795 4.58335C5.88252 4.42918 5.9375 4.24792 5.9375 4.0625C5.93725 3.81394 5.8384 3.57562 5.66264 3.39986C5.48688 3.2241 5.24856 3.12525 5 3.125V3.125Z" fill="#DC212D" fill-opacity="0.9"/>
<path d="M5 9.375L2.36375 6.26594C2.32712 6.21925 2.29087 6.17227 2.255 6.125C1.80469 5.53181 1.56141 4.80726 1.5625 4.0625C1.5625 3.15082 1.92467 2.27648 2.56932 1.63182C3.21398 0.987164 4.08832 0.625 5 0.625C5.91169 0.625 6.78603 0.987164 7.43068 1.63182C8.07534 2.27648 8.4375 3.15082 8.4375 4.0625C8.4386 4.80692 8.19543 5.53114 7.74532 6.12406L7.745 6.125C7.745 6.125 7.65125 6.24813 7.63719 6.26469L5 9.375ZM2.75375 5.74844C2.75438 5.74844 2.82688 5.84469 2.84344 5.86531L5 8.40875L7.15938 5.86187C7.17313 5.84469 7.24625 5.74781 7.24657 5.7475C7.61443 5.26285 7.81323 4.67095 7.8125 4.0625C7.8125 3.31658 7.51619 2.60121 6.98874 2.07376C6.4613 1.54632 5.74593 1.25 5 1.25C4.25408 1.25 3.53871 1.54632 3.01127 2.07376C2.48382 2.60121 2.1875 3.31658 2.1875 4.0625C2.18685 4.67132 2.38587 5.26357 2.75407 5.74844H2.75375Z" fill="#DC212D" fill-opacity="0.9"/>
</svg>
