<svg width="10" height="10" viewBox="0 0 10 10" fill="none" xmlns="http://www.w3.org/2000/svg">
<path d="M7.86734 1.75101L7.85397 1.74265L6.1627 0.909424L4.33725 3.34335L5.17709 4.46321C5.15196 4.88554 4.97286 5.284 4.6737 5.58316C4.37454 5.88231 3.97608 6.06141 3.55375 6.08653L2.43391 5.24669L0 7.0721L0.826289 8.74923L0.833242 8.76339L0.841621 8.77675C0.885716 8.8478 0.947262 8.90638 1.0204 8.94692C1.09354 8.98745 1.17583 9.00859 1.25945 9.00833H1.69586C2.53672 9.00833 3.36935 8.84271 4.1462 8.52093C4.92306 8.19914 5.62893 7.72749 6.22351 7.13291C6.81808 6.53833 7.28973 5.83247 7.61151 5.05561C7.93329 4.27875 8.09891 3.44613 8.09891 2.60526V2.16884C8.09917 2.08522 8.07804 2.00292 8.0375 1.92979C7.99697 1.85665 7.93839 1.7951 7.86734 1.75101V1.75101ZM7.47391 2.60526C7.47391 5.7913 4.88188 8.38333 1.69586 8.38333H1.34273L0.789883 7.26101L2.43402 6.0279L3.34939 6.7144H3.45356C4.07701 6.71371 4.67474 6.46573 5.11559 6.02488C5.55644 5.58402 5.80442 4.9863 5.80512 4.36284V4.25868L5.11861 3.34333L6.35158 1.69929L7.47391 2.25224V2.60526Z" fill="#DC212D" fill-opacity="0.9"/>
</svg>
