<svg width="11" height="82" viewBox="0 0 11 82" fill="none" xmlns="http://www.w3.org/2000/svg">
<path d="M8.152 79.7042V75.5742H10V81.6362H0.199999L0.199999 75.6442H2.048L2.048 79.7042H4.134V75.9942H5.954V79.7042H8.152ZM10 66.3304L10 68.5284L6.808 70.4324L10 72.3364V74.5204L4.974 71.5244L0.199999 74.3664V72.1824L3.14 70.4324L0.199999 68.6824V66.4984L4.96 69.3404L10 66.3304ZM0.199999 61.1735C0.199999 60.2308 0.517333 59.4375 1.152 58.7935C1.78667 58.1495 2.566 57.8275 3.49 57.8275C4.414 57.8275 5.19333 58.1495 5.828 58.7935C6.46267 59.4375 6.78 60.2308 6.78 61.1735V62.8955H10V64.8275H0.199999V61.1735ZM4.974 61.1735C4.974 60.7628 4.834 60.4222 4.554 60.1515C4.26467 59.8808 3.91 59.7455 3.49 59.7455C3.06067 59.7455 2.706 59.8808 2.426 60.1515C2.146 60.4222 2.006 60.7628 2.006 61.1735L2.006 62.8955H4.974L4.974 61.1735ZM8.152 54.2177V50.0877H10V56.1497H0.199999L0.199999 50.1577H2.048V54.2177H4.134V50.5077H5.954V54.2177H8.152ZM10 42.9299L6.598 44.9039V46.3739H10V48.3059H0.199999V44.3859C0.199999 43.4805 0.517333 42.7105 1.152 42.0759C1.78667 41.4412 2.552 41.1239 3.448 41.1239C4.05467 41.1239 4.61933 41.2965 5.142 41.6419C5.65533 41.9872 6.04267 42.4445 6.304 43.0139L10 40.8439V42.9299ZM2.006 46.3739H4.904V44.3859C4.904 44.0219 4.764 43.7092 4.484 43.4479C4.19467 43.1865 3.84933 43.0559 3.448 43.0559C3.04667 43.0559 2.706 43.1865 2.426 43.4479C2.146 43.7092 2.006 44.0219 2.006 44.3859V46.3739ZM0.199999 39.2863V37.3543H10V39.2863H0.199999ZM8.152 33.1882V29.0582H10V35.1202H0.199999V29.1282H2.048L2.048 33.1882H4.134L4.134 29.4782H5.954V33.1882H8.152ZM0.199999 21.6063L0.199999 19.6743H10V21.1443L4.008 25.3443H10V27.2763H0.199999V25.8063L6.178 21.6063H0.199999ZM10.196 12.7884C10.196 14.2631 9.706 15.4811 8.726 16.4424C7.746 17.4037 6.53733 17.8844 5.1 17.8844C3.65333 17.8844 2.44467 17.4037 1.474 16.4424C0.493999 15.4811 0.00399935 14.2631 0.00399935 12.7884C0.00399935 11.9017 0.213999 11.0851 0.634 10.3384C1.04467 9.5824 1.60467 8.9944 2.314 8.5744L3.28 10.2404C2.84133 10.4831 2.50067 10.8284 2.258 11.2764C2.006 11.7244 1.88 12.2284 1.88 12.7884C1.88 13.7404 2.17867 14.5104 2.776 15.0984C3.37333 15.6771 4.148 15.9664 5.1 15.9664C6.04267 15.9664 6.81267 15.6771 7.41 15.0984C8.00733 14.5104 8.306 13.7404 8.306 12.7884C8.306 12.2284 8.18467 11.7244 7.942 11.2764C7.69 10.8191 7.34933 10.4737 6.92 10.2404L7.886 8.5744C8.59533 8.9944 9.16 9.57774 9.58 10.3244C9.99067 11.0711 10.196 11.8924 10.196 12.7884ZM8.152 5.03558V0.905578H10V6.96758H0.199999L0.199999 0.975578H2.048L2.048 5.03558H4.134L4.134 1.32558H5.954V5.03558H8.152Z" fill="#242424"/>
</svg>
