<svg width="20" height="20" viewBox="0 0 20 20" fill="none" xmlns="http://www.w3.org/2000/svg">
<path d="M10.1953 5.74804H14.0918V6.69335H10.1953V5.74804ZM6.29102 9.48827C7.15234 9.07616 7.60352 8.44921 7.60352 7.48046C7.60352 5.56445 6.17773 5.09961 4.53125 5.09961H0V14.7168H4.6582C6.4043 14.7168 8.04297 13.8769 8.04297 11.9238C8.04297 10.7168 7.47266 9.8242 6.29102 9.48827ZM2.11328 6.74023H4.0957C4.85938 6.74023 5.54492 6.95312 5.54492 7.83983C5.54492 8.65624 5.01172 8.98436 4.25586 8.98436H2.11328V6.74023ZM4.36914 13.084H2.11133V10.4355H4.41406C5.34375 10.4355 5.93164 10.8242 5.93164 11.8086C5.93164 12.7773 5.23047 13.084 4.36914 13.084ZM15.6152 11.3359C15.6152 9.27538 14.4102 7.55859 12.2305 7.55859C10.1113 7.55859 8.66992 9.15428 8.66992 11.2461C8.66992 13.414 10.0352 14.9023 12.2305 14.9023C13.8926 14.9023 14.9688 14.1543 15.4863 12.5586H13.8008C13.6172 13.1543 12.8711 13.4668 12.291 13.4668C11.1699 13.4668 10.584 12.8105 10.584 11.6953H15.6016C15.6074 11.5801 15.6152 11.459 15.6152 11.3359ZM10.584 10.4883C10.6445 9.57225 11.2559 8.99999 12.1699 8.99999C13.1309 8.99999 13.6113 9.56444 13.6953 10.4883H10.584Z" fill="#242424"/>
</svg>
