<svg width="15" height="15" viewBox="0 0 15 15" fill="none" xmlns="http://www.w3.org/2000/svg">
<path d="M7.50004 0.357178C3.55504 0.357178 0.357178 3.55504 0.357178 7.50004C0.357178 11.445 3.55504 14.6429 7.50004 14.6429C11.445 14.6429 14.6429 11.445 14.6429 7.50004C14.6429 3.55504 11.445 0.357178 7.50004 0.357178ZM7.50004 1.39218C9.05611 1.39218 10.4765 1.97432 11.555 2.93218C10.7625 3.97754 9.55861 4.67361 8.35218 5.14468C7.66923 3.90087 6.90383 2.70415 6.06111 1.56253C6.53242 1.44893 7.01557 1.39174 7.50039 1.39218H7.50004ZM4.90146 1.97075C5.69789 3.16218 6.46932 4.26682 7.17396 5.51718C5.39182 5.97896 3.37789 6.25611 1.51753 6.26075C1.90968 4.35789 3.18789 2.77789 4.90146 1.97111V1.97075ZM12.2325 3.63861C13.1151 4.71716 13.6006 6.06605 13.6079 7.45968C12.195 7.18111 10.79 7.10825 9.35932 7.25253C9.19861 6.85146 9.00361 6.47039 8.81682 6.05968C10.05 5.56218 11.3686 4.71075 12.2325 3.63825V3.63861ZM7.67003 6.46218C7.82289 6.78718 8.00003 7.13218 8.16646 7.48468C6.17718 8.36182 4.06111 9.53396 2.96289 11.589C1.90861 10.4223 1.34675 8.89284 1.39503 7.32111C3.52539 7.31111 5.61646 7.04468 7.67003 6.46218ZM10.8979 8.12753C11.7868 8.12773 12.6719 8.24175 13.5318 8.46682C13.3992 9.29405 13.0979 10.0852 12.6465 10.7909C12.1951 11.4967 11.6033 12.102 10.9079 12.5693C10.58 11.0782 10.2675 9.65146 9.71504 8.21289C10.1066 8.15583 10.5018 8.12719 10.8975 8.12718L10.8979 8.12753ZM13.5636 8.23825C13.5593 8.27325 13.5554 8.30754 13.5504 8.34182C13.5554 8.30718 13.5597 8.27289 13.5636 8.23825ZM8.58504 8.49182C9.14789 9.94646 9.58968 11.5572 9.88611 13.1247C9.13154 13.4448 8.32008 13.6093 7.50039 13.6082C6.14248 13.6102 4.82299 13.1576 3.75218 12.3225C4.85825 10.5282 6.57146 9.17039 8.58468 8.49218L8.58504 8.49182Z" fill="black"/>
</svg>
