<svg width="11" height="79" viewBox="0 0 11 79" fill="none" xmlns="http://www.w3.org/2000/svg">
<path d="M8.152 76.8107V72.6807H10V78.7427H0.199999L0.199999 72.7507H2.048V76.8107H4.134V73.1007H5.954V76.8107H8.152ZM0.199999 67.0068C0.199999 65.6628 0.671333 64.5428 1.614 63.6468C2.55667 62.7415 3.71867 62.2888 5.1 62.2888C6.48133 62.2888 7.64333 62.7415 8.586 63.6468C9.52867 64.5428 10 65.6628 10 67.0068V70.8988H0.199999L0.199999 67.0068ZM8.152 67.0068C8.152 66.1575 7.872 65.4668 7.312 64.9348C6.74267 64.4028 6.00533 64.1368 5.1 64.1368C4.19467 64.1368 3.462 64.4028 2.902 64.9348C2.33267 65.4668 2.048 66.1575 2.048 67.0068V68.9668H8.152V67.0068ZM10.196 56.9127C10.196 58.0047 9.888 58.9007 9.272 59.6007C8.656 60.3007 7.83 60.6507 6.794 60.6507H0.199999V58.7327H6.64C7.15333 58.7327 7.55933 58.5881 7.858 58.2987C8.15667 58.0001 8.306 57.5381 8.306 56.9127C8.306 56.2874 8.15667 55.8301 7.858 55.5407C7.55933 55.2421 7.15333 55.0927 6.64 55.0927H0.199999L0.199999 53.1607H6.794C7.83 53.1607 8.656 53.5107 9.272 54.2107C9.888 54.9107 10.196 55.8114 10.196 56.9127ZM10.196 46.3522C10.196 47.8269 9.706 49.0449 8.726 50.0062C7.746 50.9676 6.53733 51.4482 5.1 51.4482C3.65333 51.4482 2.44467 50.9676 1.474 50.0062C0.493999 49.0449 0.00399935 47.8269 0.00399935 46.3522C0.00399935 45.4656 0.213999 44.6489 0.634 43.9022C1.04467 43.1462 1.60467 42.5582 2.314 42.1382L3.28 43.8042C2.84133 44.0469 2.50067 44.3922 2.258 44.8402C2.006 45.2882 1.88 45.7922 1.88 46.3522C1.88 47.3042 2.17867 48.0742 2.776 48.6622C3.37333 49.2409 4.148 49.5302 5.1 49.5302C6.04267 49.5302 6.81267 49.2409 7.41 48.6622C8.00733 48.0742 8.306 47.3042 8.306 46.3522C8.306 45.7922 8.18467 45.2882 7.942 44.8402C7.69 44.3829 7.34933 44.0376 6.92 43.8042L7.886 42.1382C8.59533 42.5582 9.16 43.1416 9.58 43.8882C9.99067 44.6349 10.196 45.4562 10.196 46.3522ZM10 34.2724L8.236 34.8604L8.236 38.7664L10 39.3544V41.4404L0.199999 38.0104V35.6164L10 32.1724V34.2724ZM6.43 38.1504L6.43 35.4624L2.426 36.8064L6.43 38.1504ZM0.199999 25.0298H2.048V27.6758H10V29.6078H2.048V32.2398H0.199999L0.199999 25.0298ZM0.199999 23.5312V21.5992H10V23.5312H0.199999ZM8.726 11.1192C9.706 12.1085 10.196 13.3125 10.196 14.7312C10.196 16.1498 9.706 17.3538 8.726 18.3432C7.73667 19.3232 6.528 19.8132 5.1 19.8132C3.672 19.8132 2.468 19.3232 1.488 18.3432C0.498666 17.3538 0.00399935 16.1498 0.00399935 14.7312C0.00399935 13.3125 0.498666 12.1085 1.488 11.1192C2.468 10.1298 3.672 9.63516 5.1 9.63516C6.528 9.63516 7.73667 10.1298 8.726 11.1192ZM7.41 16.9852C8.00733 16.3785 8.306 15.6272 8.306 14.7312C8.306 13.8352 8.00733 13.0838 7.41 12.4772C6.80333 11.8705 6.03333 11.5672 5.1 11.5672C4.16667 11.5672 3.39667 11.8705 2.79 12.4772C2.18333 13.0838 1.88 13.8352 1.88 14.7312C1.88 15.6272 2.18333 16.3785 2.79 16.9852C3.39667 17.5918 4.16667 17.8952 5.1 17.8952C6.03333 17.8952 6.80333 17.5918 7.41 16.9852ZM0.199999 2.18726V0.255265H10V1.72527L4.008 5.92527H10L10 7.85727H0.199999V6.38727L6.178 2.18726H0.199999Z" fill="#242424"/>
</svg>
