<svg width="11" height="70" viewBox="0 0 11 70" fill="none" xmlns="http://www.w3.org/2000/svg">
<path d="M0.199999 69.9848V68.0528H10V69.9848H0.199999ZM0.199999 60.1487L0.199999 58.2167H10V59.6867L4.008 63.8868H10V65.8188H0.199999V64.3488L6.178 60.1487H0.199999ZM0.199999 49.4968H2.048V52.1428H10V54.0748H2.048V56.7068H0.199999L0.199999 49.4968ZM8.152 46.0663V41.9363H10V47.9983H0.199999L0.199999 42.0063H2.048V46.0663H4.134V42.3563H5.954V46.0663H8.152ZM10 34.7785L6.598 36.7525V38.2225H10V40.1545H0.199999L0.199999 36.2345C0.199999 35.3291 0.517333 34.5591 1.152 33.9245C1.78667 33.2898 2.552 32.9725 3.448 32.9725C4.05467 32.9725 4.61933 33.1451 5.142 33.4905C5.65533 33.8358 6.04267 34.2931 6.304 34.8625L10 32.6925V34.7785ZM2.006 38.2225H4.904V36.2345C4.904 35.8705 4.764 35.5578 4.484 35.2965C4.19467 35.0351 3.84933 34.9045 3.448 34.9045C3.04667 34.9045 2.706 35.0351 2.426 35.2965C2.146 35.5578 2.006 35.8705 2.006 36.2345V38.2225ZM8.152 29.2028L8.152 25.0728H10L10 31.1348H0.199999L0.199999 25.1428H2.048V29.2028H4.134V25.4928H5.954L5.954 29.2028H8.152ZM10.196 19.945C10.196 20.9157 9.98133 21.7323 9.552 22.395C9.11333 23.0577 8.52067 23.5243 7.774 23.795L6.808 22.143C7.80667 21.7603 8.306 21.009 8.306 19.889C8.306 19.3477 8.208 18.951 8.012 18.699C7.816 18.447 7.56867 18.321 7.27 18.321C6.92467 18.321 6.65867 18.475 6.472 18.783C6.276 19.091 6.066 19.6417 5.842 20.435C5.71133 20.8737 5.58067 21.247 5.45 21.555C5.31933 21.8537 5.14667 22.157 4.932 22.465C4.708 22.7637 4.428 22.9923 4.092 23.151C3.756 23.3097 3.364 23.389 2.916 23.389C2.02933 23.389 1.32467 23.0763 0.802 22.451C0.27 21.8163 0.00399935 21.0557 0.00399935 20.169C0.00399935 19.3757 0.199999 18.6803 0.591999 18.083C0.974666 17.4763 1.51133 17.005 2.202 16.669L3.14 18.293C2.3 18.685 1.88 19.3103 1.88 20.169C1.88 20.5703 1.97333 20.8877 2.16 21.121C2.33733 21.345 2.57067 21.457 2.86 21.457C3.168 21.457 3.42 21.331 3.616 21.079C3.80267 20.8177 4.008 20.323 4.232 19.595C4.32533 19.2963 4.4 19.0723 4.456 18.923C4.50267 18.7643 4.582 18.5543 4.694 18.293C4.79667 18.0223 4.89467 17.817 4.988 17.677C5.08133 17.5277 5.20733 17.3597 5.366 17.173C5.52467 16.9863 5.688 16.8463 5.856 16.753C6.024 16.6503 6.22933 16.5663 6.472 16.501C6.70533 16.4263 6.962 16.389 7.242 16.389C8.14733 16.389 8.866 16.7203 9.398 17.383C9.93 18.0363 10.196 18.8903 10.196 19.945ZM0.199999 8.58238H2.048V11.2284H10V13.1604H2.048V15.7924H0.199999L0.199999 8.58238ZM10.196 4.01127C10.196 4.98193 9.98133 5.7986 9.552 6.46127C9.11333 7.12393 8.52067 7.5906 7.774 7.86127L6.808 6.20927C7.80667 5.8266 8.306 5.07527 8.306 3.95526C8.306 3.41393 8.208 3.01727 8.012 2.76527C7.816 2.51327 7.56867 2.38727 7.27 2.38727C6.92467 2.38727 6.65867 2.54127 6.472 2.84926C6.276 3.15727 6.066 3.70793 5.842 4.50126C5.71133 4.93993 5.58067 5.31327 5.45 5.62127C5.31933 5.91993 5.14667 6.22327 4.932 6.53127C4.708 6.82993 4.428 7.0586 4.092 7.21727C3.756 7.37593 3.364 7.45527 2.916 7.45527C2.02933 7.45527 1.32467 7.1426 0.802 6.51727C0.27 5.8826 0.00399935 5.12193 0.00399935 4.23527C0.00399935 3.44193 0.199999 2.7466 0.591999 2.14927C0.974666 1.5426 1.51133 1.07126 2.202 0.735265L3.14 2.35927C2.3 2.75126 1.88 3.3766 1.88 4.23527C1.88 4.6366 1.97333 4.95393 2.16 5.18727C2.33733 5.41127 2.57067 5.52327 2.86 5.52327C3.168 5.52327 3.42 5.39727 3.616 5.14527C3.80267 4.88393 4.008 4.38927 4.232 3.66126C4.32533 3.3626 4.4 3.1386 4.456 2.98927C4.50267 2.8306 4.582 2.6206 4.694 2.35927C4.79667 2.0886 4.89467 1.88326 4.988 1.74327C5.08133 1.59393 5.20733 1.42593 5.366 1.23926C5.52467 1.0526 5.688 0.912598 5.856 0.819265C6.024 0.716598 6.22933 0.632598 6.472 0.567265C6.70533 0.492598 6.962 0.455265 7.242 0.455265C8.14733 0.455265 8.866 0.786598 9.398 1.44927C9.93 2.1026 10.196 2.9566 10.196 4.01127Z" fill="#242424"/>
</svg>
