<svg width="10" height="10" viewBox="0 0 10 10" fill="none" xmlns="http://www.w3.org/2000/svg">
<path d="M0.911667 2.99875C1.41517 2.99875 1.82333 2.59058 1.82333 2.08708C1.82333 1.58358 1.41517 1.17542 0.911667 1.17542C0.408167 1.17542 0 1.58358 0 2.08708C0 2.59058 0.408167 2.99875 0.911667 2.99875Z" fill="#DC212D" fill-opacity="0.9"/>
<path d="M2.55917 3.68957V8.74749H4.12958V6.24624C4.12958 5.58624 4.25375 4.94707 5.07208 4.94707C5.87916 4.94707 5.88916 5.70166 5.88916 6.28791V8.74791H7.46041V5.97416C7.46041 4.61166 7.16708 3.56458 5.57458 3.56458C4.81 3.56458 4.2975 3.98416 4.08792 4.38124H4.06667V3.68957H2.55917ZM0 3.68957H1.57292V8.74749H0V3.68957Z" fill="#DC212D" fill-opacity="0.9"/>
</svg>
